{
    "accessors": {
        "accessor_21": {
            "bufferView": "bufferView_29",
            "byteOffset": 0,
            "byteStride": 0,
            "componentType": 5123,
            "count": 2280,
            "type": "SCALAR"
        },
        "accessor_23": {
            "bufferView": "bufferView_30",
            "byteOffset": 0,
            "byteStride": 12,
            "componentType": 5126,
            "count": 439,
            "max": [
                1,
                1,
                1
            ],
            "min": [
                -1,
                -1,
                -1
            ],
            "type": "VEC3"
        },
        "accessor_25": {
            "bufferView": "bufferView_30",
            "byteOffset": 5268,
            "byteStride": 12,
            "componentType": 5126,
            "count": 439,
            "max": [
                1,
                1,
                1
            ],
            "min": [
                -1,
                -1,
                -1
            ],
            "type": "VEC3"
        },
        "accessor_27": {
            "bufferView": "bufferView_30",
            "byteOffset": 10536,
            "byteStride": 8,
            "componentType": 5126,
            "count": 439,
            "max": [
                1,
                1
            ],
            "min": [
                0,
                0
            ],
            "type": "VEC2"
        }
    },
    "animations": {},
    "asset": {
        "generator": "collada2gltf@",
        "premultipliedAlpha": true,
        "profile": {
            "api": "WebGL",
            "version": "1.0.2"
        },
        "version": "1.0"
    },
    "bufferViews": {
        "bufferView_29": {
            "buffer": "input",
            "byteLength": 4560,
            "byteOffset": 0,
            "target": 34963
        },
        "bufferView_30": {
            "buffer": "input",
            "byteLength": 14048,
            "byteOffset": 4560,
            "target": 34962
        }
    },
    "buffers": {
        "input": {
            "byteLength": 18608,
            "type": "arraybuffer",
            "uri": "data:application/octet-stream;base64,"
        }
    },
    "materials": {
        "lambert1-fx": {
            "name": "lambert1",
            "technique": "technique0",
            "values": {
                "ambient": [
                    0,
                    0,
                    0,
                    1
                ],
                "diffuse": [
                    0.4000000059604645,
                    0.4000000059604645,
                    0.4000000059604645,
                    1
                ],
                "emission": [
                    0,
                    0,
                    0,
                    1
                ],
                "transparency": 0
            }
        }
    },
    "meshes": {
        "pSphere1-lib": {
            "name": "pSphere1Mesh",
            "primitives": [
                {
                    "attributes": {
                        "NORMAL": "accessor_25",
                        "POSITION": "accessor_23",
                        "TEXCOORD_0": "accessor_27"
                    },
                    "indices": "accessor_21",
                    "material": "lambert1-fx",
                    "mode": 4
                }
            ]
        }
    },
    "nodes": {
        "pSphere1": {
            "children": [],
            "matrix": [
                10,
                0,
                0,
                0,
                0,
                10,
                0,
                0,
                0,
                0,
                10,
                0,
                0,
                0,
                0,
                1
            ],
            "meshes": [
                "pSphere1-lib"
            ],
            "name": "pSphere1"
        }
    },
    "programs": {
        "program_0": {
            "attributes": [
                "a_normal",
                "a_position"
            ],
            "fragmentShader": "input0FS",
            "vertexShader": "input0VS"
        }
    },
    "scene": "defaultScene",
    "scenes": {
        "defaultScene": {
            "nodes": [
                "pSphere1"
            ]
        }
    },
    "shaders": {
        "input0FS": {
            "type": 35632,
            "uri": "data:text/plain;base64,"
        },
        "input0VS": {
            "type": 35633,
            "uri": "data:text/plain;base64,"
        }
    },
    "skins": {},
    "techniques": {
        "technique0": {
            "attributes": {
                "a_normal": "normal",
                "a_position": "position"
            },
            "parameters": {
                "ambient": {
                    "type": 35666
                },
                "diffuse": {
                    "type": 35666
                },
                "emission": {
                    "type": 35666
                },
                "modelViewMatrix": {
                    "semantic": "MODELVIEW",
                    "type": 35676
                },
                "normal": {
                    "semantic": "NORMAL",
                    "type": 35665
                },
                "normalMatrix": {
                    "semantic": "MODELVIEWINVERSETRANSPOSE",
                    "type": 35675
                },
                "position": {
                    "semantic": "POSITION",
                    "type": 35665
                },
                "projectionMatrix": {
                    "semantic": "PROJECTION",
                    "type": 35676
                },
                "transparency": {
                    "type": 5126
                }
            },
            "program": "program_0",
            "states": {
                "enable": [
                    2929,
                    3042
                ],
                "functions": {
                    "blendEquationSeparate": [
                        32774,
                        32774
                    ],
                    "blendFuncSeparate": [
                        1,
                        771,
                        1,
                        771
                    ],
                    "depthMask": false
                }
            },
            "uniforms": {
                "u_ambient": "ambient",
                "u_diffuse": "diffuse",
                "u_emission": "emission",
                "u_modelViewMatrix": "modelViewMatrix",
                "u_normalMatrix": "normalMatrix",
                "u_projectionMatrix": "projectionMatrix",
                "u_transparency": "transparency"
            }
        }
    }
}