{
    "accessors": {
        "accessor_16": {
            "bufferView": "bufferView_54",
            "byteOffset": 4738,
            "byteStride": 0,
            "componentType": 5123,
            "count": 36,
            "type": "SCALAR"
        },
        "accessor_18": {
            "bufferView": "bufferView_55",
            "byteOffset": 13860,
            "byteStride": 12,
            "componentType": 5126,
            "count": 24,
            "max": [
                10.000005722045898,
                10.000005722045898,
                0.2000000923871994
            ],
            "min": [
                0,
                0,
                0
            ],
            "type": "VEC3"
        },
        "accessor_20": {
            "bufferView": "bufferView_55",
            "byteOffset": 14148,
            "byteStride": 12,
            "componentType": 5126,
            "count": 24,
            "max": [
                0.14708200097084045,
                0.14708200097084045,
                1
            ],
            "min": [
                -0.14708200097084045,
                -0.14708200097084045,
                -1
            ],
            "type": "VEC3"
        },
        "accessor_36": {
            "bufferView": "bufferView_54",
            "byteOffset": 0,
            "byteStride": 0,
            "componentType": 5123,
            "count": 2301,
            "type": "SCALAR"
        },
        "accessor_38": {
            "bufferView": "bufferView_55",
            "byteOffset": 0,
            "byteStride": 12,
            "componentType": 5126,
            "count": 562,
            "max": [
                6.290005683898926,
                6.290005683898926,
                50.200050354003906
            ],
            "min": [
                3.7100002765655518,
                3.701923131942749,
                34.21989440917969
            ],
            "type": "VEC3"
        },
        "accessor_40": {
            "bufferView": "bufferView_55",
            "byteOffset": 6744,
            "byteStride": 12,
            "componentType": 5126,
            "count": 562,
            "max": [
                1,
                1,
                0
            ],
            "min": [
                -0.9290689826011658,
                -1,
                -1
            ],
            "type": "VEC3"
        },
        "accessor_50": {
            "bufferView": "bufferView_54",
            "byteOffset": 4602,
            "byteStride": 0,
            "componentType": 5123,
            "count": 68,
            "type": "SCALAR"
        },
        "accessor_52": {
            "bufferView": "bufferView_55",
            "byteOffset": 13488,
            "byteStride": 12,
            "componentType": 5126,
            "count": 31,
            "max": [
                8.654999732971191,
                8.654999732971191,
                43.31995391845703
            ],
            "min": [
                1.345000982284546,
                1.345000982284546,
                0.2000000923871994
            ],
            "type": "VEC3"
        }
    },
    "animations": {},
    "asset": {
        "generator": "collada2gltf@",
        "premultipliedAlpha": true,
        "profile": {
            "api": "WebGL",
            "version": "1.0.2"
        },
        "version": "1.0"
    },
    "bufferViews": {
        "bufferView_54": {
            "buffer": "input",
            "byteLength": 4812,
            "byteOffset": 0,
            "target": 34963
        },
        "bufferView_55": {
            "buffer": "input",
            "byteLength": 14436,
            "byteOffset": 4812,
            "target": 34962
        }
    },
    "buffers": {
        "input": {
            "byteLength": 19248,
            "type": "arraybuffer",
            "uri": "data:application/octet-stream;base64,"
        }
    },
    "cameras": {
        "ID1": {
            "name": "skp_camera_Last_Saved_SketchUp_View",
            "perspective": {
                "aspect_ratio": 0,
                "yfov": 0.6108652381980153,
                "zfar": 25.39999969303608,
                "znear": 0.02539999969303608
            },
            "type": "perspective"
        }
    },
    "materials": {
        "ID19": {
            "name": "edge_color000255",
            "technique": "technique0",
            "values": {}
        },
        "ID4": {
            "name": "material",
            "technique": "technique1",
            "values": {
                "diffuse": [
                    1,
                    1,
                    1,
                    1
                ]
            }
        }
    },
    "meshes": {
        "ID11": {
            "name": "ID11",
            "primitives": [
                {
                    "attributes": {
                        "NORMAL": "accessor_40",
                        "POSITION": "accessor_38"
                    },
                    "indices": "accessor_36",
                    "material": "ID4",
                    "mode": 4
                }
            ]
        },
        "ID17": {
            "name": "ID17",
            "primitives": [
                {
                    "attributes": {
                        "POSITION": "accessor_52"
                    },
                    "indices": "accessor_50",
                    "material": "ID19",
                    "mode": 1
                }
            ]
        },
        "ID3": {
            "name": "ID3",
            "primitives": [
                {
                    "attributes": {
                        "NORMAL": "accessor_20",
                        "POSITION": "accessor_18"
                    },
                    "indices": "accessor_16",
                    "material": "ID4",
                    "mode": 4
                }
            ]
        }
    },
    "nodes": {
        "node_0": {
            "children": [
                "node_1"
            ],
            "matrix": [
                1,
                0,
                0,
                0,
                0,
                1,
                0,
                0,
                0,
                0,
                1,
                0,
                0,
                0,
                0,
                1
            ],
            "meshes": [
                "ID3",
                "ID11",
                "ID17"
            ],
            "name": "SketchUp"
        },
        "node_1": {
            "camera": "ID1",
            "children": [],
            "matrix": [
                0.292481005191803,
                0.9562709927558899,
                0,
                0,
                -0.7504019737243652,
                0.2295140027999878,
                0.6198549866676331,
                0,
                0.5927500128746033,
                -0.18129600584506989,
                0.784716010093689,
                0,
                11.56782054901123,
                4.375937461853027,
                54.67324447631836,
                1
            ],
            "name": "skp_camera_Last_Saved_SketchUp_View"
        },
        "node_2": {
            "children": [
                "node_0"
            ],
            "matrix": [
                1,
                0,
                0,
                0,
                0,
                0,
                -1,
                0,
                0,
                1,
                0,
                0,
                0,
                0,
                0,
                1
            ],
            "name": "Y_UP_Transform"
        }
    },
    "programs": {
        "program_0": {
            "attributes": [
                "a_position"
            ],
            "fragmentShader": "input0FS",
            "vertexShader": "input0VS"
        },
        "program_1": {
            "attributes": [
                "a_normal",
                "a_position"
            ],
            "fragmentShader": "input1FS",
            "vertexShader": "input1VS"
        }
    },
    "scene": "defaultScene",
    "scenes": {
        "defaultScene": {
            "nodes": [
                "node_2"
            ]
        }
    },
    "shaders": {
        "input0FS": {
            "type": 35632,
            "uri": "data:text/plain;base64,"
        },
        "input0VS": {
            "type": 35633,
            "uri": "data:text/plain;base64,"
        },
        "input1FS": {
            "type": 35632,
            "uri": "data:text/plain;base64,"
        },
        "input1VS": {
            "type": 35633,
            "uri": "data:text/plain;base64,"
        }
    },
    "skins": {},
    "techniques": {
        "technique0": {
            "attributes": {
                "a_position": "position"
            },
            "parameters": {
                "modelViewMatrix": {
                    "semantic": "MODELVIEW",
                    "type": 35676
                },
                "position": {
                    "semantic": "POSITION",
                    "type": 35665
                },
                "projectionMatrix": {
                    "semantic": "PROJECTION",
                    "type": 35676
                }
            },
            "program": "program_0",
            "states": {
                "enable": [
                    2929,
                    2884
                ]
            },
            "uniforms": {
                "u_modelViewMatrix": "modelViewMatrix",
                "u_projectionMatrix": "projectionMatrix"
            }
        },
        "technique1": {
            "attributes": {
                "a_normal": "normal",
                "a_position": "position"
            },
            "parameters": {
                "diffuse": {
                    "type": 35666
                },
                "modelViewMatrix": {
                    "semantic": "MODELVIEW",
                    "type": 35676
                },
                "normal": {
                    "semantic": "NORMAL",
                    "type": 35665
                },
                "normalMatrix": {
                    "semantic": "MODELVIEWINVERSETRANSPOSE",
                    "type": 35675
                },
                "position": {
                    "semantic": "POSITION",
                    "type": 35665
                },
                "projectionMatrix": {
                    "semantic": "PROJECTION",
                    "type": 35676
                }
            },
            "program": "program_1",
            "states": {
                "enable": [
                    2929,
                    2884
                ]
            },
            "uniforms": {
                "u_diffuse": "diffuse",
                "u_modelViewMatrix": "modelViewMatrix",
                "u_normalMatrix": "normalMatrix",
                "u_projectionMatrix": "projectionMatrix"
            }
        }
    }
}